<?xml version="1.0" encoding="utf-8"?>
<!-- Generator: Adobe Illustrator 23.1.0, SVG Export Plug-In . SVG Version: 6.00 Build 0)  -->
<svg version="1.1" id="Layer_1" xmlns="http://www.w3.org/2000/svg" xmlns:xlink="http://www.w3.org/1999/xlink" x="0px" y="0px"
	 viewBox="0 0 1200 1200" enable-background="new 0 0 1200 1200" xml:space="preserve">
<g>
	<g>
		<path fill="#34317A" d="M802.82,808.591c-2.979,3.053-6.107,5.958-9.235,8.713c-3.128,2.904-6.33,5.734-9.606,8.415
			c-51.608,42.969-117.887,68.885-190.197,68.885c-64.268,0-123.844-20.479-172.548-55.257c-3.5-2.532-7-5.064-10.351-7.67
			c-3.351-2.681-6.628-5.362-9.83-8.117l-17.798,18.245c3.202,2.756,6.404,5.511,9.756,8.118c3.351,2.681,6.777,5.287,10.277,7.82
			c43.863,32.171,96.067,53.544,152.739,60.097c8.415,1.043,16.905,1.713,25.469,2.011c4.096,0.148,8.192,0.223,12.288,0.223
			c12.586,0,25.022-0.744,37.235-2.159c8.638-0.968,17.128-2.308,25.469-3.947c54.587-10.799,104.258-35.373,145.292-70.002
			c3.277-2.681,6.479-5.511,9.607-8.415c3.128-2.83,6.256-5.734,9.234-8.713L802.82,808.591z M352.2,770.686
			c-35.373-48.927-56.225-109.025-56.225-173.888c0-64.566,20.628-124.365,55.778-173.218c2.457-3.5,4.989-6.926,7.67-10.277
			c2.607-3.351,5.288-6.628,8.117-9.83l-18.245-17.798c-2.755,3.202-5.511,6.479-8.117,9.83c-2.681,3.351-5.287,6.702-7.819,10.128
			c-31.203,42.374-52.352,92.716-59.799,147.228c-1.117,8.415-1.936,16.905-2.383,25.469c-0.447,6.107-0.596,12.288-0.596,18.469
			c0,10.5,0.521,20.852,1.489,31.054c0.819,8.564,1.936,17.054,3.426,25.394c8.862,49.97,29.267,96.067,58.384,135.387
			c2.458,3.426,5.064,6.852,7.819,10.128c2.607,3.351,5.362,6.628,8.117,9.83l18.245-17.798c-2.755-3.202-5.511-6.479-8.117-9.83
			C357.264,777.611,354.658,774.186,352.2,770.686z M915.493,565.818c-0.82-8.564-1.936-17.128-3.426-25.469
			c-7.522-42.299-23.235-81.768-45.501-116.621c-2.309-3.649-4.617-7.223-7.149-10.724c-2.383-3.5-4.915-7-7.522-10.426
			l-18.319,17.873c2.606,3.426,5.064,6.926,7.447,10.501c2.383,3.574,4.766,7.223,7,10.947
			c27.628,45.203,43.565,98.226,43.565,154.898c0,56.969-16.086,110.29-44.012,155.643c-2.234,3.649-4.617,7.298-7.074,10.873
			c-2.383,3.574-4.841,7.075-7.447,10.5l18.319,17.873c2.681-3.426,5.138-6.851,7.596-10.352c2.458-3.5,4.841-7.075,7.149-10.724
			c24.724-38.501,41.405-82.587,47.884-129.876c1.117-8.341,1.936-16.83,2.383-25.394c0.447-6.107,0.595-12.288,0.595-18.543
			C916.982,586.372,916.461,576.02,915.493,565.818z M811.979,358.642c-3.128-2.904-6.33-5.734-9.607-8.415
			c-41.108-34.927-91.003-59.725-145.887-70.523c-8.341-1.639-16.83-2.979-25.469-3.947c-12.213-1.415-24.65-2.159-37.235-2.159
			c-4.096,0-8.192,0.075-12.288,0.224c-8.564,0.298-17.054,0.968-25.469,2.01c-56.97,6.628-109.397,28.15-153.409,60.544
			c-3.5,2.532-6.851,5.213-10.202,7.894c-3.351,2.607-6.553,5.288-9.756,8.117l17.724,18.171c3.202-2.755,6.479-5.437,9.83-8.117
			c3.351-2.606,6.851-5.213,10.351-7.67c48.778-35.076,108.652-55.779,173.218-55.779c72.608,0,139.11,26.139,190.793,69.406
			c3.277,2.681,6.479,5.511,9.607,8.415c3.128,2.83,6.256,5.734,9.234,8.713l17.724-18.097
			C818.161,364.376,815.107,361.472,811.979,358.642z"/>
	</g>
	<g>
		<g>
			<path fill="#34317A" d="M656.486,987.245c-7.67-5.362-16.234-9.532-25.469-12.212c-7.819-2.309-16.16-3.574-24.724-3.574
				c-8.639,0-16.905,1.265-24.799,3.574c-9.234,2.68-17.798,6.925-25.469,12.287c-22.639,15.862-37.459,42.15-37.459,71.789
				c0,48.406,39.32,87.726,87.726,87.726c48.331,0,87.652-39.32,87.652-87.726C693.944,1029.395,679.124,1003.108,656.486,987.245z
				 M606.293,1121.366c-34.331,0-62.257-27.926-62.257-62.257s27.926-62.257,62.257-62.257c34.331,0,62.182,27.926,62.182,62.257
				S640.623,1121.366,606.293,1121.366z"/>
		</g>
		<g>
			<g>
				<g>
					<rect x="631.029" y="905.2" fill="#34317A" width="25.439" height="91.459"/>
				</g>
				<g>
					<rect x="556.057" y="905.2" fill="#34317A" width="25.439" height="91.459"/>
				</g>
			</g>
		</g>
	</g>
	<g>
		<g>
			<path fill="#34317A" d="M606.293,53.165c-48.406,0-87.726,39.32-87.726,87.651c0,29.714,14.82,56.002,37.459,71.864
				c7.67,5.362,16.234,9.606,25.469,12.287c7.894,2.309,16.16,3.575,24.799,3.575c8.564,0,16.905-1.266,24.724-3.575
				c9.234-2.681,17.799-6.851,25.469-12.213c22.639-15.937,37.459-42.225,37.459-71.938
				C693.944,92.485,654.624,53.165,606.293,53.165z M606.293,203.074c-34.331,0-62.257-27.926-62.257-62.257
				c0-34.331,27.926-62.257,62.257-62.257c34.331,0,62.182,27.926,62.182,62.257C668.475,175.147,640.623,203.074,606.293,203.074z"
				/>
		</g>
		<g>
			<g>
				<g>
					<rect x="556.057" y="203.326" fill="#34317A" width="25.439" height="91.459"/>
				</g>
				<g>
					<rect x="631.029" y="203.326" fill="#34317A" width="25.439" height="91.459"/>
				</g>
			</g>
		</g>
	</g>
	<g>
		<g>
			<g>
				<g>
					<rect x="200.167" y="627.82" fill="#34317A" width="89.342" height="25.439"/>
				</g>
				<g>
					<rect x="200.167" y="552.856" fill="#34317A" width="80.863" height="25.439"/>
				</g>
			</g>
			<g>
				<path fill="#34317A" d="M221.803,578.329c-2.681-9.234-6.851-17.798-12.213-25.469c-15.862-22.639-42.15-37.459-71.864-37.459
					c-48.406,0-87.726,39.32-87.726,87.652s39.321,87.726,87.726,87.726c29.714,0,56.001-14.894,71.864-37.533
					c5.362-7.67,9.532-16.234,12.213-25.394c2.309-7.819,3.574-16.16,3.574-24.799C225.377,594.489,224.111,586.148,221.803,578.329
					z M137.726,665.31c-34.331,0-62.257-27.926-62.257-62.257c0-34.331,27.926-62.257,62.257-62.257
					c34.256,0,62.257,27.926,62.257,62.257C199.983,637.384,171.982,665.31,137.726,665.31z"/>
			</g>
			<g>
				<path fill="#34317A" d="M1062.348,502.891c-29.714,0-56.002,14.82-71.864,37.459c-5.436,7.67-9.607,16.234-12.287,25.469
					c-2.309,7.819-3.574,16.16-3.574,24.724c0,8.638,1.266,16.979,3.574,24.799c2.681,9.16,6.851,17.724,12.287,25.394
					c15.788,22.639,42.15,37.533,71.864,37.533c48.331,0,87.652-39.32,87.652-87.726
					C1150,542.211,1110.679,502.891,1062.348,502.891z M1062.348,652.799c-34.331,0-62.257-27.926-62.257-62.257
					c0-34.331,27.926-62.257,62.257-62.257s62.257,27.926,62.257,62.257C1124.605,624.873,1096.679,652.799,1062.348,652.799z"/>
			</g>
		</g>
		<g>
			<g>
				<g>
					<rect x="908.401" y="540.354" fill="#34317A" width="91.459" height="25.439"/>
				</g>
				<g>
					<rect x="908.401" y="615.326" fill="#34317A" width="91.459" height="25.439"/>
				</g>
			</g>
		</g>
	</g>
	<g>
		<g>
			<path fill="#34317A" d="M1057.954,888.348c-26.437-26.436-63.97-35.001-97.63-25.766c-4.468,1.266-8.937,2.83-13.255,4.766
				c-9.681,4.17-18.841,9.979-27.107,17.426l-3.724,3.574c-9.532,9.532-16.756,20.554-21.671,32.395
				c-1.788,4.393-3.351,9.011-4.469,13.628c-8.415,33.14,0.298,69.779,26.139,95.62c19.511,19.587,45.203,29.342,70.821,29.342
				c25.692,0,51.31-9.755,70.895-29.342c19.512-19.51,29.267-45.203,29.267-70.821
				C1087.222,933.552,1077.466,907.86,1057.954,888.348z M1039.933,1012.044c-29.118,29.117-76.555,29.117-105.673,0
				c-29.192-29.193-29.192-76.556,0-105.747c0.894-0.895,1.862-1.788,2.755-2.682c14.15-12.734,32.097-19.138,50.044-19.138
				c19.139,0,38.278,7.298,52.874,21.82C1069.051,935.488,1069.051,982.851,1039.933,1012.044z"/>
		</g>
		<g>
			<g>
				<polygon fill="#FFFFFF" points="951.76,322.822 947.888,326.62 859.417,413.005 841.023,430.952 821.288,450.24 
					812.426,441.155 833.576,420.452 851.895,402.579 933.44,322.896 915.791,306.14 898.588,288.119 821.139,367.429 
					803.415,385.526 780.404,409.133 771.319,400.271 794.181,376.812 811.979,358.642 894.939,273.671 898.737,269.799 
					924.578,296.906 				"/>
				<polygon fill="#34317A" points="970.08,322.673 961.292,331.237 866.566,423.729 848.023,441.899 830.15,459.326 
					821.288,450.24 812.426,441.155 833.576,420.452 851.895,402.579 933.44,322.896 915.791,306.14 898.588,288.119 
					821.139,367.429 803.415,385.526 780.404,409.133 771.319,400.271 762.233,391.334 784.575,368.397 802.373,350.227 
					890.322,260.192 898.812,251.479 933.813,288.119 				"/>
			</g>
		</g>
		<g>
			<g>
				<polygon fill="#FFFFFF" points="951.76,871.965 924.578,897.88 898.737,924.988 894.567,920.743 811.384,835.549 
					793.585,817.304 771.319,794.516 780.404,785.654 802.82,808.591 820.618,826.836 898.588,906.668 915.419,889.094 
					916.238,888.348 919.961,884.774 933.44,871.89 851.374,791.686 833.055,773.813 812.426,753.632 821.288,744.547 
					840.502,763.313 858.97,781.335 947.069,867.348 				"/>
				<polygon fill="#34317A" points="970.08,872.114 937.015,903.615 933.366,907.04 898.812,943.308 890.099,934.371 
					801.777,843.964 783.979,825.719 762.233,803.453 771.319,794.516 780.404,785.654 802.82,808.591 820.618,826.836 
					898.588,906.668 915.419,889.094 916.238,888.348 919.961,884.774 933.44,871.89 851.374,791.686 833.055,773.813 
					812.426,753.632 821.288,744.547 830.15,735.461 847.576,752.44 866.12,770.611 960.324,862.582 				"/>
			</g>
		</g>
		<g>
			<path fill="#34317A" d="M1057.954,163.604c-39.097-39.097-102.62-39.022-141.717,0c-26.065,26.139-34.703,63.225-25.916,96.588
				c1.191,4.617,2.755,9.085,4.617,13.479c4.84,11.543,11.915,22.267,21.298,31.65c9.383,9.383,20.107,16.458,31.65,21.298
				c4.319,1.862,8.862,3.426,13.405,4.617c8.415,2.234,17.128,3.351,25.767,3.351c25.692,0,51.31-9.756,70.895-29.267
				C1096.977,266.224,1096.977,202.701,1057.954,163.604z M1039.933,287.3c-29.118,29.118-76.555,29.118-105.673,0
				c-29.192-29.118-29.192-76.556,0-105.748c14.522-14.522,33.661-21.82,52.8-21.82s38.278,7.298,52.874,21.82
				C1069.051,210.744,1069.051,258.181,1039.933,287.3z"/>
		</g>
	</g>
	<g>
		<path fill="#F0576B" d="M606.74,437.729c-34.629,0-62.704,28.15-62.704,62.704c0,34.554,28.075,62.704,62.704,62.704
			c34.554,0,62.629-28.15,62.629-62.704C669.369,465.879,641.294,437.729,606.74,437.729z M606.74,537.668
			c-20.554,0-37.31-16.682-37.31-37.235c0-20.554,16.756-37.235,37.31-37.235c20.479,0,37.235,16.681,37.235,37.235
			C643.975,520.987,627.219,537.668,606.74,537.668z"/>
	</g>
	<g>
		<path fill="#F0576B" d="M581.718,612.66c-20.777,0-37.682,16.904-37.682,37.682c0,20.852,16.904,37.756,37.682,37.756
			c20.777,0,37.682-16.904,37.682-37.756C619.4,629.564,602.495,612.66,581.718,612.66z M581.718,662.629
			c-6.777,0-12.288-5.511-12.288-12.287c0-6.777,5.511-12.213,12.288-12.213c6.777,0,12.287,5.436,12.287,12.213
			C594.005,657.119,588.494,662.629,581.718,662.629z"/>
	</g>
	<g>
		<path fill="#F0576B" d="M681.657,562.69c-20.777,0-37.682,16.905-37.682,37.682s16.905,37.756,37.682,37.756
			c20.777,0,37.756-16.979,37.756-37.756S702.434,562.69,681.657,562.69z M681.657,612.66c-6.777,0-12.288-5.511-12.288-12.288
			c0-6.777,5.511-12.288,12.288-12.288c6.777,0,12.288,5.511,12.288,12.288C693.944,607.149,688.433,612.66,681.657,612.66z"/>
	</g>
	<g>
		<g>
			<path fill="#34317A" d="M328.37,934.371c-1.117-4.617-2.606-9.234-4.468-13.628c-4.915-11.841-12.139-22.863-21.671-32.395
				c-9.16-9.16-19.586-16.159-30.756-21c-4.319-1.936-8.787-3.5-13.33-4.692c-8.713-2.457-17.724-3.649-26.735-3.649
				c-25.692,0-51.31,9.756-70.821,29.341c-39.097,39.022-39.097,102.62,0,141.643c19.512,19.587,45.129,29.342,70.821,29.342
				c25.618,0,51.31-9.755,70.821-29.342C328.146,1004.15,336.859,967.511,328.37,934.371z M284.284,1012.044
				c-29.193,29.117-76.556,29.117-105.748,0c-29.118-29.193-29.118-76.556,0-105.747c28.075-28.001,72.981-29.044,102.397-3.203
				l3.724,3.574l2.234,2.383C313.401,938.467,312.508,983.745,284.284,1012.044z"/>
		</g>
		<g>
			<g>
				<polygon fill="#FFFFFF" points="303.05,305.693 285.028,322.896 349.296,385.674 367.541,403.473 406.117,441.155 
					398.967,448.453 397.18,450.24 359.424,413.303 341.178,395.505 270.655,326.62 266.783,322.822 293.89,296.906 
					319.731,269.799 323.529,273.671 392.414,344.269 410.212,362.44 447.15,400.271 438.064,409.133 400.382,370.557 
					382.658,352.386 319.88,288.119 				"/>
				<polygon fill="#34317A" points="456.31,391.334 447.15,400.271 438.064,409.133 400.382,370.557 382.658,352.386 
					319.88,288.119 303.05,305.693 285.028,322.896 349.296,385.674 367.541,403.473 406.117,441.155 398.967,448.453 
					397.18,450.24 388.318,459.326 351.754,423.58 333.359,405.632 257.251,331.237 248.463,322.673 285.103,287.746 
					319.657,251.479 328.146,260.192 402.616,336.375 420.564,354.77 				"/>
			</g>
		</g>
		<g>
			<g>
				<polygon fill="#FFFFFF" points="447.15,794.516 410.883,831.677 393.01,849.922 323.902,920.743 319.731,924.988 293.89,897.88 
					266.783,871.965 271.474,867.348 341.7,798.761 359.945,780.963 397.18,744.547 398.967,746.334 406.117,753.632 
					368.063,790.793 349.817,808.591 285.028,871.89 302.677,888.646 319.88,906.668 383.254,841.804 401.053,823.559 
					438.064,785.654 				"/>
				<polygon fill="#34317A" points="456.31,803.453 421.234,839.347 403.287,857.742 328.37,934.371 319.657,943.308 
					286.89,909.051 284.656,906.668 280.932,903.094 248.463,872.114 258.144,862.656 333.88,788.633 352.2,770.686 
					388.318,735.461 397.18,744.547 398.967,746.334 406.117,753.632 368.063,790.793 349.817,808.591 285.028,871.89 
					302.677,888.646 319.88,906.668 383.254,841.804 401.053,823.559 438.064,785.654 447.15,794.516 				"/>
			</g>
		</g>
		<g>
			<path fill="#34317A" d="M302.231,163.604c-39.022-39.097-102.62-39.097-141.643,0c-39.097,39.097-39.097,102.62,0,141.717
				c19.512,19.511,45.129,29.267,70.821,29.267c8.713,0,17.352-1.117,25.841-3.351c4.543-1.191,9.085-2.755,13.405-4.617
				c11.468-4.915,22.267-11.99,31.575-21.298c9.383-9.383,16.458-20.107,21.298-31.65c1.936-4.394,3.5-8.862,4.617-13.479
				C337.008,226.829,328.37,189.743,302.231,163.604z M178.536,287.3c-29.118-29.118-29.118-76.556,0-105.748
				c14.596-14.522,33.735-21.82,52.874-21.82s38.278,7.298,52.874,21.82c29.118,29.192,29.118,76.63,0,105.748
				C255.091,316.417,207.728,316.417,178.536,287.3z"/>
		</g>
	</g>
</g>
</svg>
